<svg xmlns="http://www.w3.org/2000/svg" xmlns:xlink="http://www.w3.org/1999/xlink" viewBox="0 0 574.23 329.65"><defs><style>.cls-1{fill:none;}.cls-2{isolation:isolate;}.cls-3{fill:#b4dfd5;}.cls-4{fill:#ec7772;}.cls-5{fill:#76a9b7;}.cls-6{fill:#b94a5b;}.cls-7{fill:#92c7d3;}.cls-8{fill:#527480;}.cls-9{fill:#e4f3f7;}.cls-10{fill:#ffbda9;}.cls-11{fill:#ffac92;}.cls-12{fill:#e5af51;}.cls-13{fill:#f29d7e;}.cls-14{fill:#fdd17a;}.cls-15{fill:#e8605c;}.cls-16{fill:#f7f7f7;}.cls-17{fill:#e2dede;}.cls-18{mix-blend-mode:multiply;}.cls-19{fill:#dde6e8;}.cls-20{fill:#b3d6ff;}.cls-21{fill:#fff;opacity:0.5;mix-blend-mode:overlay;}.cls-22{clip-path:url(#clip-path);}.cls-23{fill:#2a514a;}.cls-24{fill:#42b093;}.cls-25{clip-path:url(#clip-path-2);}</style><clipPath id="clip-path" transform="translate(-9.87)"><rect class="cls-1" x="383.5" y="36.08" width="207.89" height="280.98"/></clipPath><clipPath id="clip-path-2" transform="translate(-9.87)"><rect class="cls-1" y="89.83" width="168.12" height="227.23" transform="translate(168.12 406.89) rotate(180)"/></clipPath></defs><title>Fichier 1</title><g class="cls-2"><g id="Calque_2" data-name="Calque 2"><g id="OBJECTS"><path class="cls-3" d="M369.81,111.68a56.1,56.1,0,0,0-98.88,4.94,4.26,4.26,0,0,1-2,2.43c-1.23.46-2.54-.33-3.64-1-17.77-11.55-43.09-9.84-59.14,4-10.45,9-16.71,22.12-19.85,35.57s-3.43,27.37-3.7,41.17a23.65,23.65,0,0,0-23.55,1.58c-6.81,4.67-13.54,22.48-12.71,30.7,66.6,14.68,199.25,20.9,202.22,19.8,3.26-1.2,28.75-49.59,32-74.63,1.28-9.93,2.57-19.95,1.64-29.92s-4.25-20-11.11-27.3C372.54,113.58,369.81,111.68,369.81,111.68Z" transform="translate(-9.87)"/><path class="cls-3" d="M381.7,116a56.1,56.1,0,0,1,94.62,29.13,4.26,4.26,0,0,0,1.33,2.85c1.08.75,2.54.3,3.79-.12,20.07-6.82,44.19,1.07,56.33,18.44,7.91,11.31,10.75,25.55,10.48,39.36s-3.41,27.37-6.55,40.81a23.65,23.65,0,0,1,22.44,7.33c5.45,6.2,7.59,25.12,4.76,32.88C500.76,284.5,370.66,257.88,368,256.08c-2.86-2-15.66-55.14-12.63-80.2,1.2-9.94,2.42-20,5.77-29.4s9-18.35,17.49-23.73C378.6,117.16,381.7,116,381.7,116Z" transform="translate(-9.87)"/><polygon class="cls-4" points="99.31 225.84 549.21 263.92 549.21 317.06 23.23 316.85 21.5 250.06 99.31 225.84"/><path class="cls-5" d="M261.47,243.21l-.37,1.91c-.11.56-.22,1.13-.29,1.68,0,.28-.07.57-.1.86a7,7,0,0,1-.83,3.19,1.69,1.69,0,0,1-1.44.74,3.8,3.8,0,0,1-3.06-2,6.5,6.5,0,0,1-.64-3V245l-1.5-.37a11.18,11.18,0,0,1-5.4-3l-.5-.51a16.51,16.51,0,0,0-3.65-3l-.58-.32-.6-.33L239,235.39q4.28,16,8.55,31.95.7,2.61,1.4,5.24s70.7-17.4,71.85-17.9h0Z" transform="translate(-9.87)"/><path class="cls-6" d="M249.16,285a32.61,32.61,0,0,0,9.59,2.38,28.71,28.71,0,0,0,9.8-1.62c13.46-4.19,26-6.83,38.95-12.21,6.92-2.87,15.3-5.48,22.24-8.3a3.61,3.61,0,0,0,2.24-1.8,2.56,2.56,0,0,0-1.42-2.93c-1.05-.55-7.69-1.13-8.87-1.1-9.54.27-13.56,2.76-22.88,4.82q-15.91,3.52-31.67,7.64c-4.66,1.22-9.37,2.49-14.19,2.6-5.66.13-11.16-1.3-16.66-2.4-3.53-.71-43.61-9.28-46.2-6.07C197.63,272.24,240.06,281.7,249.16,285Z" transform="translate(-9.87)"/><path class="cls-7" d="M321.17,260c-1.23.22-67.69,16.95-70.81,17.75L249,272.57c21.34-5.39,69.7-17.27,71.85-17.9C320.93,255.69,321.17,259.86,321.17,260Z" transform="translate(-9.87)"/><path class="cls-8" d="M250.36,277.7l-46.23-9.38-18.62-3.78L176,262.62l-12.26-2.48-8-1.62-8.38-1.7c-.56-.11-1.14-.27-1.7-.34l-.19,0a24.42,24.42,0,0,1-.94-3.18l-4.23-13.06q-5.36-16.55-10.73-33.09-6.51-20.14-13-40.27l43.84,5.32,20.38,2.47,27.15,3.29c1.38.16,2.83.28,4.29.44a37.68,37.68,0,0,1,5.26.82c3,.73,5.7,2.08,7.39,4.85a11.22,11.22,0,0,1,1.15,2.55l1.18,4.42.33,1.26q3.28,12.29,6.57,24.56,1,3.68,2,7.35a3.69,3.69,0,0,1,.27,1q1.17,4.36,2.33,8.71,4.48,16.73,9,33.45c.58,2.14,1.15,4.3,1.72,6.44C249.66,275.09,250,276.39,250.36,277.7Z" transform="translate(-9.87)"/><path class="cls-6" d="M452,272.89c-19,9.66-50.58,27.64-56,30.54a2.22,2.22,0,0,1-1.42.24c-20.37-3.35-61-12.1-77.91-15.69a2.26,2.26,0,0,1-.31-4.32c17.49-6.53,35.2-12.09,52.62-18.93,1.72-.68,3.37-1.54,4.69-1.48,3.06.13,56,3.64,77.5,5.39A2.25,2.25,0,0,1,452,272.89Z" transform="translate(-9.87)"/><path class="cls-9" d="M449.51,269.69l-53,24.71L389,297.93l-75.25-12.18-8.28-1.34,59.42-23.33c1.72-.68,3.37-1.54,4.69-1.48,3.6.16,7.27.91,10.83,1.37l41.75,5.26Z" transform="translate(-9.87)"/><polygon class="cls-7" points="375.74 294.32 306.73 283.15 331.12 273.59 400.54 283.62 375.74 294.32"/><polygon class="cls-7" points="403.53 282.09 335.4 271.95 341.75 269.6 409.35 279.58 403.53 282.09"/><polygon class="cls-7" points="412.38 278.56 344.26 268.41 350.61 266.06 418.21 276.04 412.38 278.56"/><polygon class="cls-7" points="421.43 274.53 360.48 265.45 366.16 263.35 426.65 272.28 421.43 274.53"/><path class="cls-10" d="M262,240.29c.05,2.55-1,5-1.3,7.51,0,.16,0,.32,0,.48a7.36,7.36,0,0,1-.36,2,3.82,3.82,0,0,1-3.83,2.38,4,4,0,0,1-3.44-3c-.27-1.06-.1-2.19-.4-3.24a1.4,1.4,0,0,0-.3-.58,1.87,1.87,0,0,0-1-.39c-3.85-.82-6-5-9.55-6.75a9.33,9.33,0,0,1-1.89-1,3.62,3.62,0,0,1-.34-.34l-.93-3.47a.63.63,0,0,0,0-.13c-.76-2.87-1.52-5.72-2.29-8.58a3.77,3.77,0,0,0-.26-1c-.62-2.29-1.24-4.59-1.84-6.88a1.15,1.15,0,0,1,.27-.27c2.27-1.62,7.13-1.4,9.53-.63a28.47,28.47,0,0,1,10.79,6.87,11.26,11.26,0,0,1,2.6,3.49,26.13,26.13,0,0,1,.78,2.51C259.33,233,262,236.37,262,240.29Z" transform="translate(-9.87)"/><path class="cls-11" d="M260.68,248.28a7.36,7.36,0,0,1-.36,2,3.82,3.82,0,0,1-3.83,2.38,4,4,0,0,1-3.44-3c-.27-1.06-.1-2.19-.4-3.24a1.4,1.4,0,0,0-.3-.58,1.87,1.87,0,0,0-1-.39c-3.85-.82-6-5-9.55-6.75a9.33,9.33,0,0,1-1.89-1,3.62,3.62,0,0,1-.34-.34l-.93-3.47a.63.63,0,0,0,0-.13,3.35,3.35,0,0,1,1.35-.79,23.82,23.82,0,0,1,3.06-.51,8.07,8.07,0,0,0,5.29-3.71c.33-.55.67-1.2,1.3-1.35a1.64,1.64,0,0,1,1.62.91c.34.56.52,1.22.9,1.76.67.93,1.83,1.35,2.75,2a3.46,3.46,0,0,1,1.59,3.27,7,7,0,0,1-.91,1.94,2.52,2.52,0,0,0-.31,2.07c.17.4.51.72.67,1.13a2.48,2.48,0,0,1,.09,1.05c-.08,1.17-.37,2.31-.45,3.48a5,5,0,0,0,.77,3.35,2.55,2.55,0,0,0,3.09.9A11,11,0,0,0,260.68,248.28Z" transform="translate(-9.87)"/><path class="cls-9" d="M314.72,243.4q2-11.49,4-23,.92-5.31,1.84-10.61,2.43-14,4.87-28c.53-3,1.05-6.11,1.81-9.12.49-2,.87-5.05,2.34-6.51a4.66,4.66,0,0,1,.73-.6c3.67-2.64,10.86-2.13,14.83-2.11a7.06,7.06,0,0,1,2.2.26,6.23,6.23,0,0,1,2.35,1.7,67,67,0,0,1,7.78,10.31,17.55,17.55,0,0,1,2.34,4.45,35.93,35.93,0,0,1,.76,5.18,17.88,17.88,0,0,0,.43,2c.18.73.4,1.46.62,2.19q2.6,8.63,5.86,17a92.31,92.31,0,0,1,4,11.38c.54,2.17.88,4.38,1.22,6.59q1.88,12.06,3.76,24.13l-2.42-.21h0l-58.75-5.08Z" transform="translate(-9.87)"/><path class="cls-12" d="M376.41,248.74l91.44,7.91h.07a37.61,37.61,0,0,1,.21-13.34c-6,.41-10.67-4.72-15.41-8.4-6-4.65-13.25-7.39-19.62-11.51-7.12-4.62-13-10.91-20.15-15.57-5.6-3.67-11.83-6.25-17.68-9.51-6.8-3.79-13.13-8.52-20.42-11.23a20.51,20.51,0,0,0-8.2-1.52c-1.93.1-4.37.6-5.66,1.85a2.91,2.91,0,0,0-.82,2.82,110.79,110.79,0,0,1,1.95,11.31,63.58,63.58,0,0,0,1.81,9.05q4.66,18.57,9.75,37a7.07,7.07,0,0,0,.3.92h0Z" transform="translate(-9.87)"/><path class="cls-6" d="M370.88,75.49a9.72,9.72,0,0,1,4.66,1.85,3.28,3.28,0,0,1,1.1,1.08,3.49,3.49,0,0,1,.29,1.62,17.28,17.28,0,0,1-.8,6.05,7.75,7.75,0,0,1-3.9,4.53,2.33,2.33,0,0,1-1,.25,2.47,2.47,0,0,1-1.52-.81,11,11,0,0,1-3-6C366,80.16,365.46,75.07,370.88,75.49Z" transform="translate(-9.87)"/><path class="cls-13" d="M339.4,133a18.86,18.86,0,0,0,5.79,4.77c2.15,1.29,5.1,1.59,7.07,0,4.07-3.23,1.8-9.35,4.86-13.55,1.36-1.87,2.59-3.81,4.6-5,4.46-2.56,7.57-7,9.45-11.83s2.65-9.93,3.41-15a6.68,6.68,0,0,0,0-2.54c-.35-1.44-1.59-2.46-2.61-3.53A15.8,15.8,0,0,1,367.68,75c-1.93-.39-3.72,1-5.17,2.34q-11,10-21.31,20.74-5.08,5.3-10,10.75c-3,3.29-4,5.32-1.41,9.28C333,123,336,128.24,339.4,133Z" transform="translate(-9.87)"/><path class="cls-14" d="M336,135.77q-1.74,9.15-3.49,18.3l-2.19,11.52c-.39,2-.77,4.06-1.16,6.08-4.56,23.94-9.12,47.89-13.91,71.78l-.51-.05L275.66,240q-1.86-13.46-3.73-26.89c-.5.18-1,.37-1.47.58a31.07,31.07,0,0,0-13.82,11.55,65.71,65.71,0,0,0-5.84-5.22,25.37,25.37,0,0,0-3.9-2.46c-3.72-1.86-8.27-2.51-12-.71l-.7.35-.11-.41-6.57-24.56c0-.09-.05-.17-.07-.26a16.38,16.38,0,0,1,3.27-5.21c2.21-2.34,5.15-3.92,7.31-6.32,2.83-3.16,4.06-7.43,6.41-11a65.71,65.71,0,0,1,5.86-6.86c4.15-4.69,7.39-10.09,10.61-15.46a29.28,29.28,0,0,0,2.86-5.67l.06-.2c.63-1.92.89-4,1.9-5.73,1.45-2.49,4.16-3.94,6.8-5.09a4.87,4.87,0,0,0,2.1-1.4l0,0c.66-1,.52-2.23.75-3.37.54-2.77,3.15-4.6,5.6-6a87.3,87.3,0,0,1,18.12-7.75,100.87,100.87,0,0,0,11.44-3.67c3.68-1.58,6-4.71,9.17-6.46,4.15,5.9-.21,15.55-2.91,21.16a8.51,8.51,0,0,0-1.14,3.86c.15,3.52,4.5,5.25,8,5.09s7.21-1.32,10.47,0a3.2,3.2,0,0,1,1.79,1.51A3.93,3.93,0,0,1,336,135.77Z" transform="translate(-9.87)"/><path class="cls-15" d="M315.5,128.71c0,.55,0,1.25.56,1.41a1.32,1.32,0,0,0,.87-.15c3.74-1.54,7.89-1.73,11.93-1.89l7.41-.3-3.74-5.36a25.71,25.71,0,0,1-1.86-2.94c-1.44-2.81-1.79-6-2.4-9.14a3.39,3.39,0,0,0-.42-1.23,3.5,3.5,0,0,0-1-.92c-1.25-.84-5.29-3.52-6.32-1.57-.36.68,0,2.68-.08,3.52a26,26,0,0,1-.76,3.74C318.32,118.83,315.9,123.53,315.5,128.71Z" transform="translate(-9.87)"/><path class="cls-14" d="M396.57,214.22c5.47,4.48,10.35,9.65,15.79,14.17a87.32,87.32,0,0,0,48.16,19.67,11,11,0,0,0,5.13-.44,9.44,9.44,0,0,0,4.2-4.12c4-6.68,4.41-14.9,3.61-22.64s-2.72-15.35-3-23.12c-.18-4.75.23-9.64-1.34-14.13-1.07-3-3-5.71-4.23-8.69a44.4,44.4,0,0,1-2.33-9.76,265.75,265.75,0,0,0-12.28-46.78,22.91,22.91,0,0,0-2.75-5.77,19.86,19.86,0,0,0-7.14-5.55c-8.2-4.28-17.3-6.49-26.29-8.67l-18.64-4.52a6.19,6.19,0,0,0-3.67-.13c-1.37.54-2.16,1.94-2.9,3.21a45.43,45.43,0,0,1-17.24,16.83c-4.24,2.33-8.91,4-12.58,7.17s-6.19,8.39-4.33,12.86c1.28,3.08,4.25,5,6.67,7.33a25.52,25.52,0,0,1,.83,36.2c-1.82,1.9-9.81,5.12-8.13,8.17.81,1.47,4.81,3.3,6.12,4.32,1.6,1.25,3.25,2.45,4.92,3.6,6.68,4.63,13.79,8.6,20.61,13A117,117,0,0,1,396.57,214.22Z" transform="translate(-9.87)"/><path class="cls-12" d="M357,176.55a47.46,47.46,0,0,0-3.2,7.82c.09,2.56,2.43-.3,3.44-1a17,17,0,0,0,5-5.56,1.84,1.84,0,0,0,.26-1.75,1.58,1.58,0,0,0-1-.63,4.49,4.49,0,0,0-4.48,1.23" transform="translate(-9.87)"/><path class="cls-15" d="M375.06,123.86c3.26,3,6.27,6.36,10.22,8.33a127.36,127.36,0,0,0,6.1-33,21.78,21.78,0,0,0-.12-4.59,12,12,0,0,0-2-5A23.85,23.85,0,0,0,384.4,85L376.93,79a47.6,47.6,0,0,0-2.44,9.33,100.27,100.27,0,0,1-5.27,17.32q-1.7,4.2-3.78,8.23c-.34.66-2.1,3-1.77,3.74s2.77.81,3.48,1.05A23.55,23.55,0,0,1,375.06,123.86Z" transform="translate(-9.87)"/><path class="cls-11" d="M339.55,127a10.12,10.12,0,0,1-.72-3.67,3.94,3.94,0,0,1,1.66-3.21c1.69-1.05,4-.16,5.43,1.18,2,1.84,3.25,4.38,4.43,6.85l1.89,4a.81.81,0,0,1-.63,1.36l-3.42.87a7.3,7.3,0,0,1-5.76-.92C340.79,132.36,340.15,128.71,339.55,127Z" transform="translate(-9.87)"/><path class="cls-16" d="M346.21,140.83a73.21,73.21,0,0,1,.94,12,21.41,21.41,0,0,1-.76,6.33,8.94,8.94,0,0,1-3.67,5.06,8.14,8.14,0,0,1-.77.41,17.83,17.83,0,0,1-2.86,1c-5.83,1.59-11.8,3.2-17.83,2.81a11.18,11.18,0,0,1-2.82-.48,13.18,13.18,0,0,1-3.77-2.33l-.14-.11a4.32,4.32,0,0,1-1-1,4.55,4.55,0,0,1-.54-2.07c-.3-3.23-.61-6.46-.91-9.69-.18-1.88-.35-3.76-.42-5.64-.06-1.51,0-3,0-4.53,0-3.6.07-7.2.1-10.81a1,1,0,0,1,.11-.55,1.07,1.07,0,0,1,.59-.34c1.16,0,2.73-.81,3.88-1.1,1.31-.34,2.62-.63,3.94-.89a74.17,74.17,0,0,1,14.56-1.42c1.49,0,3.45-.26,4.65.83s2,3.35,2.83,4.86c1.51.3,3.46.64,5,.93.41,1.45-1,2.85-1.22,4.35A8.77,8.77,0,0,0,346.21,140.83Z" transform="translate(-9.87)"/><path class="cls-17" d="M341.95,164.64a17.83,17.83,0,0,1-2.86,1c-5.83,1.59-11.8,3.2-17.83,2.81a11.18,11.18,0,0,1-2.82-.48,13.18,13.18,0,0,1-3.77-2.33,58.47,58.47,0,0,1,17-3.1,21.07,21.07,0,0,1,6.34.43A16.41,16.41,0,0,1,341.95,164.64Z" transform="translate(-9.87)"/><path class="cls-10" d="M347.25,134.1a7.87,7.87,0,0,0-4.28,6.44,4,4,0,0,1-.56,2.63,6.37,6.37,0,0,0,2.4,7.76,4.66,4.66,0,0,0-.66,8.26c-2.06.85-3.75,3-3.33,5.2.46,2.4,3.06,3.71,5.41,4.39s5,1.25,6.43,3.23c.91,1.25,1.25,3,2.57,3.81.87.54,2,.55,2.86,1.14.36.25.64.6,1,.87a3.91,3.91,0,0,0,3.3.59,7.83,7.83,0,0,0,3-1.64,26.53,26.53,0,0,0,4.07-4.35c3.39-4.33,6.43-9.41,6.2-14.9a27.46,27.46,0,0,0-.61-4.15l-2-10a8.83,8.83,0,0,0-.56-2,7.28,7.28,0,0,0-1.27-1.8,21,21,0,0,0-11.15-6.37C356,132.3,351.06,132,347.25,134.1Z" transform="translate(-9.87)"/><path class="cls-10" d="M303,43l-.38,12a26.81,26.81,0,0,0,.4,7c.49,2.09,1.48,4,1.94,6.12.57,2.59.3,5.28.49,7.92a41.27,41.27,0,0,0,3,11.47c2.49,6.6,5.36,13.15,9.76,18.66,2.88,3.61,6.86,6.91,11.48,6.9s8.58-3.31,11.67-6.77C348.84,97.88,355.88,89,363.93,81c2.62-2.62,6-3.17,8.53-6.95a36.18,36.18,0,0,0,4.77-11.68c.75-3.17,1.1-6.71-.59-9.5s-6.1-4-8.24-1.54a6.2,6.2,0,0,1-.72.8,2.43,2.43,0,0,1-3.14-.5,7.29,7.29,0,0,1-1.43-3.16,151.58,151.58,0,0,0-6-17.66c-2.4-5.81-5.39-11.75-10.65-15.19a18,18,0,0,0-20.53.94c-2.82,2.24-5,5.38-8.24,6.93s-9.22,1.32-11.59,4.08C302.87,31.28,303.13,38.44,303,43Z" transform="translate(-9.87)"/><path class="cls-12" d="M274.64,129.06a22.27,22.27,0,0,1-1.94,9.28c-1,2.26-2.4,4.33-3.44,6.58a23.41,23.41,0,0,0-2,7.29c-.28,2.47-.2,5.12-1.55,7.21a89.71,89.71,0,0,1-1.86-17c0-.37,0-.75,0-1.13.63-1.92.89-4,1.9-5.73,1.45-2.49,4.16-3.94,6.8-5.09a4.87,4.87,0,0,0,2.1-1.4Z" transform="translate(-9.87)"/><path class="cls-12" d="M270.46,213.72a31.07,31.07,0,0,0-13.82,11.55,65.73,65.73,0,0,0-5.84-5.22c0-.2,0-.41,0-.61,0-1.73.09-3.64,1.3-4.86,1-1.06,2.65-1.32,3.87-2.18,2.38-1.69,2.56-5.35,1.19-7.93s-3.87-4.34-6.28-6a55,55,0,0,1,9.14.85c2.93.52,6,1.41,7.92,3.68A14.17,14.17,0,0,1,270.46,213.72Z" transform="translate(-9.87)"/><line class="cls-1" x1="305.36" y1="243.45" x2="304.85" y2="243.4"/><path class="cls-15" d="M374.49,50.55c-3.18-1-6.7,1-8.39,3.89s-1.92,6.36-1.81,9.69c-1.23.67-2.84-.21-3.48-1.46a8.8,8.8,0,0,1-.56-4.12,54.44,54.44,0,0,0-.73-9.46,7,7,0,0,0-1-3c-.84-1.15-2.26-1.71-3.33-2.65-4-3.49-2.09-10.65-5.75-14.47-2.59-2.69-6.86-2.61-10.58-2.21q-7.23.78-14.37,2.19c-3.76.74-7.74,1.59-11.35.3a14.9,14.9,0,0,0-2.9-1,4.86,4.86,0,0,0-3.29.37,6.1,6.1,0,0,0-2.95,4,30.78,30.78,0,0,0-.94,7.77c0,1,0,2.21-.07,3.38-.79.74-1.52.52-2.79-.67-3.93-3.68-1.64-13.24-.5-17.74a16.16,16.16,0,0,1,1.93-4.89A33.67,33.67,0,0,1,306,15.72c2.31-2.42,4.1-5.29,6.42-7.69,5.44-5.6,13.5-8.15,21.3-8s15.38,2.7,22.39,6.11a35.64,35.64,0,0,1,9.54,6.26c4.8,4.7,7.19,11.4,8.13,18.05S374.4,43.83,374.49,50.55Z" transform="translate(-9.87)"/><path d="M366.94,53.26c-3,0-6.07-.17-9.11-.13-2.87,0-5.66-.42-8.52-.44a.62.62,0,0,0-.4.14.67.67,0,0,0-.36-.12,99.1,99.1,0,0,0-12.31.93c-2.72.27-5.75,1.09-8.51,1.17a.56.56,0,0,0-.45-.13,64.39,64.39,0,0,1-7.21.28.66.66,0,0,0-.76-.36c-4.07.93-8.09-.3-12.18-.43-1.65-.05-3.08-.4-4.06.85-1.46,1.86-.95,5.79-.88,7.93.06,1.88.21,3.92,1.51,5.4,3,3.43,9.91,2.57,13.12-.06s4.52-7.88,3.63-12c2,0,4,0,6-.21,0,3.4,0,7.15,1.91,10.08s5.51,4.25,8.88,4.41c9,.43,12.45-8.84,12-16.56h0c2.85,0,5.64.47,8.52.44,3,0,6.07.11,9.11.13A.69.69,0,0,0,366.94,53.26ZM315.38,67.67c-4.06,2.68-11.22,2.11-11.76-3.56a33.2,33.2,0,0,1,0-5.21c.05-.77.09-2.77.77-3.3.49-.37,2.26-.07,2.79-.05,4,.1,7.86,1.19,11.82.5C320,59.89,318.78,65.43,315.38,67.67Zm30.11-2.48c-2.74,4.43-8.83,5.1-13.21,2.76s-4.45-7.4-4.45-11.76c1.83-.1,3.76-.66,5.58-.87,2.82-.32,5.65-.62,8.48-.91a19.59,19.59,0,0,1,4-.32c2,.22,1.86.08,2.07,1.85C348.24,58.43,346.85,63,345.5,65.19Z" transform="translate(-9.87)"/><g class="cls-18"><path class="cls-19" d="M266.1,177c-11.39-1.74-94-9.1-94.23-9.2s-.35-.36-.46-.67c-.43-1.12-26-79.49-26.48-80.83,12.1.87,87.12,6,89.81,6.77A9.21,9.21,0,0,1,240,96.82C240.79,98,265.67,175.67,266.1,177Z" transform="translate(-9.87)"/><polygon class="cls-20" points="145.85 96.29 154.67 123.28 234.02 130.26 224.66 101.64 145.85 96.29"/><polygon class="cls-20" points="156.55 129.06 158.61 135.33 237.71 141.57 235.68 135.35 156.55 129.06"/><polygon class="cls-20" points="160 139.59 162.3 146.61 241.72 153.84 239.15 145.96 160 139.59"/><polygon class="cls-20" points="163.95 151.68 167.29 161.9 202.07 165.37 198.57 154.7 163.95 151.68"/><polygon class="cls-20" points="205.21 155.14 208.61 165.46 246.72 169.16 243.23 158.46 205.21 155.14"/></g><path class="cls-21" d="M309.39,121.23c-4.84.08-9.54,1.85-14.38,2a5,5,0,0,1-2.28-.35c-2.22-1.06-2-4.52-.38-6.35s4.13-2.6,6.29-3.78,4.25-3.27,3.95-5.72c-.23-1.87-1.8-3.29-3.46-4.17-5.58-2.92-12.32-1.36-18.55-.36a93.09,93.09,0,0,1-12.21,1.15c-5.08.14-10.51-.25-14.57-3.32a7.52,7.52,0,0,1-3.24-5.17c-.19-2.56,1.52-4.9,3.55-6.48,3.87-3,8.95-4,13.85-4.14s9.78.65,14.68.78c10.39.28,20.64-2.2,31-2.87,1.58-.1,3.78.42,3.65,2a2.34,2.34,0,0,1-.59,1.22c-3.33,4.13-10.67,3.41-13.47,7.92,6.5,2.74,13.9,1.07,21,1.17,2.4,0,5.26.59,6.19,2.8a4.6,4.6,0,0,1-1.2,4.75A13.51,13.51,0,0,1,324.8,105l-9.16,4.14c-1.59.72-3.44,1.83-3.38,3.58s1.81,2.64,3.41,2.85,3.26-.09,4.81.37a7,7,0,0,1,4.39,4.86,20.74,20.74,0,0,1,.51,6.78c-5,1.38-3.84-.38-7-3.35A13.09,13.09,0,0,0,309.39,121.23Z" transform="translate(-9.87)"/><g class="cls-22"><path class="cls-23" d="M532.56,323.54c.53-8.25-.52-16.49-1.14-24.71-.15-2-.25-3.95-.3-5.9a.65.65,0,0,0,.35-.1c5.24-3.75,9.25-10,12.9-15.16a91.73,91.73,0,0,0,6.33-10.09c.94-1.79,2.2-4,2.09-6.06-.05-1-1.56-1-1.51,0,.22,4.1-4.15,9.35-6.27,12.55a109.72,109.72,0,0,1-11.42,14.79c-.48.51-1.42,1.86-2.11,2.06a1.18,1.18,0,0,1-.4,0,108.64,108.64,0,0,1,1.38-18.86c1.41-8.71,2.88-17.34,2.41-26.2,0-.25,0-.5,0-.75,4.94-3.8,7.42-10.84,9.92-16.25,3.67-8,6.8-17.05,12.27-24,.6-.75-.46-1.83-1.07-1.07-5.16,6.51-8,14.79-11.57,22.24-1.21,2.56-5.8,14.64-9.67,17.09a189.17,189.17,0,0,0-2.86-23.6c-1.89-9.83-5.62-19.15-8.81-28.61,8.36-7.27,9.13-20.6,14.57-29.74a.75.75,0,0,0-1.3-.76c-5.27,8.85-6.07,21.68-13.79,28.95A107.63,107.63,0,0,1,518.3,173c-3-18.6,2.29-37.83,8-55.4,2.86-8.76,6.74-17.56,7.75-26.79,1.1-10.11-2.85-19.53-3.48-29.5-.06-1-1.57-1-1.51,0,.56,8.88,4,17.39,3.7,26.34S529,105,526.2,113.25c-5.62,16.74-11,34.59-10.18,52.47a85.67,85.67,0,0,0,4.29,21.56c-3.8-5.53-8.33-10.54-12.61-15.69-4.94-6-11.73-11.17-14.43-18.64-.33-.91-1.79-.52-1.45.4,2.44,6.76,8,11.67,12.72,16.88,5.93,6.59,12.1,13.6,16.67,21.21a.7.7,0,0,0,.56.36c2.22,6.59,4.67,13.12,6.58,19.77,2.55,8.89,3.45,18.06,4.42,27.23.17,1.62.29,3.23.37,4.83a1.65,1.65,0,0,1-.47-.15c-1.78-.91-3.49-3.3-4.82-4.78-1.55-1.72-3-3.53-4.46-5.35-3-3.79-5.79-7.72-8.91-11.39-6.55-7.69-15.09-13.25-22.75-19.72-.74-.62-1.81.44-1.07,1.07,7.82,6.61,16.52,12.27,23.14,20.19,6.29,7.52,11.52,16,19.2,22.21a1,1,0,0,0,.25.15,111.67,111.67,0,0,1-1.56,21.68,139.1,139.1,0,0,0-2.16,22.74,23.33,23.33,0,0,1-2.54-2.52c-3.13-3.27-5.61-7.09-8.35-10.68-5.54-7.27-12.7-13.32-16.71-21.68-.42-.88-1.72-.11-1.3.76,3.62,7.56,9.81,13.3,15.1,19.66,4.56,5.48,8.08,11.84,13.79,16.2q0,1.77.15,3.57c.58,9.31,2,18.64,1.36,28a.73.73,0,0,0,0,.29l1.4,0A.77.77,0,0,0,532.56,323.54Z" transform="translate(-9.87)"/><path class="cls-24" d="M581.28,239.5c6.34-12.65,1-26.6-6.27-37.58-12.45-18.79-35.69-34.77-32-60.16,1.83-12.69,9.18-23.71,12.83-35.84a77.69,77.69,0,0,0,.58-42.55c-1.65-6.07-4-12.32-8.3-17-5.28-5.76-13-7.15-20.39-5.27-12.52,3.18-22,13.91-24.59,26.42-2.61,12.84.88,25.94.33,38.87-.49,11.57-5.21,20.9-12.36,29.78-7.86,9.76-16.6,18.64-20.19,31-3.83,13.19-1.87,26.55,4.17,38.71,5,10,11.83,19.75,12.91,31.18,1.2,12.72-5.85,24.16-9.24,36a43.47,43.47,0,0,0-1.61,12.82c1,25.88,27.5,37.5,51.7,38q1.14,0,2.26,0a.73.73,0,0,1,0-.29c.6-9.34-.79-18.67-1.36-28q-.11-1.8-.15-3.57c-5.72-4.36-9.23-10.72-13.79-16.2-5.29-6.36-11.48-12.09-15.1-19.66-.42-.87.88-1.64,1.3-.76,4,8.36,11.17,14.41,16.71,21.68,2.74,3.59,5.22,7.41,8.35,10.68a23.33,23.33,0,0,0,2.54,2.52,139.1,139.1,0,0,1,2.16-22.74,111.67,111.67,0,0,0,1.56-21.68,1,1,0,0,1-.25-.15c-7.68-6.25-12.9-14.69-19.2-22.21-6.62-7.91-15.31-13.58-23.14-20.19-.74-.63.33-1.69,1.07-1.07,7.66,6.47,16.2,12,22.75,19.72,3.13,3.67,5.93,7.61,8.91,11.39,1.44,1.82,2.9,3.62,4.46,5.35,1.33,1.47,3,3.87,4.82,4.78a1.65,1.65,0,0,0,.47.15c-.09-1.6-.2-3.21-.37-4.83-1-9.17-1.88-18.34-4.42-27.23-1.91-6.66-4.36-13.19-6.58-19.77a.7.7,0,0,1-.56-.36c-4.57-7.61-10.73-14.62-16.67-21.21-4.69-5.21-10.28-10.12-12.72-16.88-.33-.92,1.13-1.31,1.45-.4,2.7,7.47,9.49,12.69,14.43,18.64,4.27,5.15,8.81,10.17,12.61,15.69A85.67,85.67,0,0,1,516,165.72c-.85-17.88,4.56-35.73,10.18-52.47,2.79-8.3,6.33-16.69,6.6-25.56s-3.14-17.47-3.7-26.34c-.06-1,1.45-1,1.51,0,.63,10,4.58,19.39,3.48,29.5-1,9.24-4.88,18-7.75,26.79-5.74,17.57-11,36.8-8,55.4a107.63,107.63,0,0,0,4.24,16.39c7.71-7.27,8.51-20.09,13.79-28.95a.75.75,0,0,1,1.3.76c-5.45,9.14-6.21,22.47-14.57,29.74,3.19,9.46,6.91,18.78,8.81,28.61a189.17,189.17,0,0,1,2.86,23.6c3.86-2.45,8.45-14.53,9.67-17.09,3.54-7.46,6.4-15.73,11.57-22.24.6-.76,1.66.31,1.07,1.07-5.47,6.9-8.6,16-12.27,24-2.5,5.41-5,12.45-9.92,16.25,0,.25,0,.5,0,.75.46,8.86-1,17.49-2.41,26.2A108.64,108.64,0,0,0,531.09,291a1.18,1.18,0,0,0,.4,0c.69-.2,1.63-1.56,2.11-2.06A109.72,109.72,0,0,0,545,274.07c2.12-3.19,6.49-8.45,6.27-12.55-.05-1,1.46-1,1.51,0,.11,2.09-1.15,4.27-2.09,6.06a91.73,91.73,0,0,1-6.33,10.09c-3.65,5.2-7.65,11.41-12.9,15.16a.65.65,0,0,1-.35.1c.06,2,.15,3.91.3,5.9.62,8.22,1.67,16.46,1.14,24.71a.77.77,0,0,1-.07.26l1,0a65.36,65.36,0,0,0,16.46-2.66c9.16-2.83,18.23-8.33,23.55-16.48,7.89-12.1-.14-23.7-2.5-36a23.42,23.42,0,0,1,1.32-14C574.63,249.18,578.65,244.74,581.28,239.5Z" transform="translate(-9.87)"/><path class="cls-24" d="M489.88,311a.83.83,0,0,0,.12-.14c2.07-3.18,3-7.35,3.93-11,.7-2.75,2.27-7.14,1.18-10-.34-.9-1.8-.51-1.45.4.87,2.27-.35,5.7-.88,7.94a60.44,60.44,0,0,1-3,9.77,5.92,5.92,0,0,1-.61,1.17c-2.38-6.14-2.94-12.69-4.78-19-.55-1.86-1.19-3.69-1.92-5.47,1.54-2.77,1.64-6.34,1.89-9.4.43-5.31.31-11,1.86-16.15a.75.75,0,0,0-1.45-.4c-1.36,4.49-1.29,9.31-1.71,14-.18,2-.26,4-.51,6a21.53,21.53,0,0,1-.64,3.47l-.21.69c-3.68-8.32-9.1-15.87-14.86-22.84l-1.32-1.61c2.74-5.62.76-12.47,1.77-18.44.16-.95-1.29-1.36-1.45-.4-.93,5.55.85,12.21-1.36,17.52a47.46,47.46,0,0,1-7.72-13c-2.49-6.84-3.41-14.18-3.86-21.4-.37-6,.11-12.3-1.09-18.24-1.25-6.18-5.44-10.79-8-16.38-.41-.88-1.71-.11-1.3.76,3.09,6.67,7.63,11.68,8.32,19.3.6,6.65.34,13.35,1,20,1.1,10.37,4,19.33,9.8,27.63-2.67-1.73-5.48-3.26-8.25-4.82-3.85-2.17-8.34-3.66-11.34-7-.64-.73-1.71.34-1.07,1.07,2.67,3,6.43,4.51,9.93,6.34a85.18,85.18,0,0,1,13.09,7.95,1,1,0,0,0,.43.18c6.16,7.74,12.2,15.52,16.14,24.57l-.15-.08c-2.06.21-6.17-3.16-7.9-4.23-2.22-1.38-4.41-2.85-6.74-4-4.74-2.41-10-3.64-15-5.4-.92-.32-1.31,1.13-.4,1.45,5.71,2,11.6,3.43,16.87,6.51,4.59,2.69,8.87,5.79,13.93,7.58h.11c.61,1.55,1.17,3.14,1.65,4.77,1.81,6.19,2.39,12.61,4.66,18.66-.44-.23-1-.56-1.74-.95-2.2-1.13-4.19-2.64-6.29-3.93-4.25-2.6-9-4.39-12.64-7.85-.71-.66-1.78.4-1.07,1.07,3.2,3,7.13,4.87,11,6.95s7.24,5,11.42,6.35c2.18,5.21,5.18,10.78,7,16.16a3.35,3.35,0,0,0,1.4-.55C494.87,321.14,492.1,316.2,489.88,311Z" transform="translate(-9.87)"/><path class="cls-23" d="M513.84,302.84c-1.59-5.75-7.14-9.29-9.44-14.7-2.8-6.57,1.83-12.94.69-19.61-1.18-6.92-7.07-12.07-12.65-15.7-9.13-6-21.38-9.81-25.79-20.8-2.72-6.77-1.36-14.19-1.26-21.25a44,44,0,0,0-5.68-22.43c-4.44-7.82-12.42-16.38-21.79-9.74-7.12,5-9,14.13-6.56,22.13,1.92,6.24,5.62,11.8,7.37,18.11,1.7,6.15.66,12-1.37,17.92-2.55,7.45-5.35,14.48-3.85,22.51,1.37,7.35,5.54,13,11,17.87,4.5,4,9.58,7.9,11.9,13.67,2.53,6.31,1.3,13.34,1.76,19.95,2,19,21.69,22,37,16.34-.06-.21-.14-.41-.21-.61-1.77-5.38-4.56-10.33-6.74-15.55-4.18-1.39-7.57-4.25-11.42-6.35s-7.75-3.94-11-6.95c-.71-.67.36-1.73,1.07-1.07,3.68,3.46,8.39,5.25,12.64,7.85,2.11,1.29,4.09,2.8,6.29,3.93.75.39,1.3.72,1.74.95-2.27-6.06-2.85-12.47-4.66-18.66-.48-1.63-1-3.22-1.65-4.77h-.11c-5.06-1.78-9.33-4.88-13.93-7.58-5.27-3.09-11.16-4.49-16.87-6.51-.91-.32-.52-1.78.4-1.45,5,1.77,10.22,3,15,5.4,2.34,1.18,4.52,2.65,6.74,4,1.73,1.08,5.84,4.44,7.9,4.23l.15.08c-3.94-9-10-16.83-16.14-24.57a1,1,0,0,1-.43-.18,85.19,85.19,0,0,0-13.09-7.95c-3.5-1.83-7.26-3.32-9.93-6.34-.64-.72.42-1.8,1.07-1.07,3,3.39,7.49,4.87,11.34,7,2.77,1.56,5.58,3.09,8.25,4.82-5.84-8.3-8.7-17.26-9.8-27.63-.71-6.66-.44-13.36-1-20-.69-7.62-5.23-12.63-8.32-19.3-.41-.88.89-1.64,1.3-.76,2.59,5.59,6.78,10.2,8,16.38,1.2,5.94.72,12.21,1.09,18.24.44,7.22,1.37,14.56,3.86,21.4a47.46,47.46,0,0,0,7.72,13c2.21-5.31.43-12,1.36-17.52.16-1,1.61-.55,1.45.4-1,6,1,12.83-1.77,18.44l1.32,1.61c5.76,7,11.17,14.51,14.86,22.84l.21-.69a21.53,21.53,0,0,0,.64-3.47c.25-2,.34-4,.51-6,.42-4.64.35-9.46,1.71-14a.75.75,0,0,1,1.45.4c-1.55,5.11-1.43,10.84-1.86,16.15-.25,3.06-.35,6.63-1.89,9.4.72,1.79,1.37,3.61,1.92,5.47,1.84,6.29,2.4,12.84,4.78,19a5.92,5.92,0,0,0,.61-1.17,60.44,60.44,0,0,0,3-9.77c.53-2.24,1.75-5.66.88-7.94-.35-.91,1.11-1.3,1.45-.4,1.09,2.84-.48,7.23-1.18,10-.92,3.62-1.86,7.79-3.93,11a.84.84,0,0,1-.12.14c2.22,5.18,5,10.13,6.69,15.52.68-.28,1.34-.59,2-.91a33.82,33.82,0,0,0,7.74-5C511.12,316.4,515.68,309.48,513.84,302.84Z" transform="translate(-9.87)"/></g><g class="cls-25"><path class="cls-24" d="M54.68,303.92l-.19-.05c-3.73-1.65-7-4.86-10-7.59-2.24-2.07-6.23-5.11-6.92-8.3-.22-1,1.33-1.51,1.55-.49.55,2.56,3.65,4.93,5.44,6.64a65,65,0,0,0,8.45,7,6.36,6.36,0,0,0,1.24.7c-1.46-6.93-4.79-13.16-6.82-19.91-.6-2-1.08-4-1.48-6.06-3-1.59-5.2-4.75-7.21-7.37C35.28,264,32,258.74,27.64,255c-.8-.67.28-1.89,1.08-1.21,3.86,3.25,6.62,7.63,9.72,11.58,1.33,1.69,2.58,3.45,4,5.09A23.17,23.17,0,0,0,45,273.25l.59.49c-1.56-9.66-1.11-19.64,0-29.3q.13-1.11.24-2.23c-5.76-3.46-8-10.79-12.4-15.59-.7-.76.37-2,1.08-1.21,4.1,4.46,6.4,11.51,11.5,15a51,51,0,0,0-.66-16.24c-1.77-7.62-5.23-14.78-9.07-21.55-3.2-5.65-7.31-11-9.71-17.08-2.5-6.3-1.42-12.92-2.36-19.47-.15-1,1.47-1.1,1.62-.08,1.13,7.82,0,15,3.81,22.27,3.36,6.35,7.53,12.23,10.79,18.65,5.09,10,7.77,19.75,7.37,30.66,1.39-3.13,3-6.15,4.61-9.19,2.2-4.21,5.38-8.19,6.09-13,.15-1,1.74-.69,1.59.34-.64,4.29-3.15,7.83-5.23,11.53a91.61,91.61,0,0,0-7.14,14.84,1,1,0,0,1-.28.41c-1,10.59-1.9,21.15-.15,31.61,0-.05.06-.1.09-.16,2-1,3.71-6.46,4.64-8.45,1.19-2.55,2.3-5.15,3.71-7.59,2.87-4.95,6.86-9.12,10.32-13.64.64-.83,1.85.25,1.21,1.08-4,5.17-8.45,9.89-11.39,15.76-2.56,5.12-4.6,10.42-8.11,15a.59.59,0,0,1-.09.08c.36,1.76.79,3.52,1.31,5.27,2,6.65,5.23,12.77,6.74,19.56.26-.46.56-1.08,1-1.87,1.32-2.31,2.23-4.83,3.37-7.23,2.31-4.84,5.5-9.21,6.79-14.49.25-1,1.84-.68,1.59.34-1.12,4.59-3.58,8.57-5.8,12.68s-3.62,8.72-6.58,12.42c1.09,6,1.65,12.76,3.21,18.64a3.6,3.6,0,0,1-1.59.33C56.13,316,55.72,309.89,54.68,303.92Z" transform="translate(-9.87)"/><path class="cls-23" d="M28.29,310.6c-1.94-6.12,1-12.56-.11-18.79-1.33-7.57-9.23-10.59-12.12-17.28-3-6.93-.7-15,2.2-21.57,4.75-10.72,13.52-21.38,11.05-33.87-1.52-7.7-7.09-13.59-11.32-19.9a47.33,47.33,0,0,1-8-23.55c-.58-9.65,1.6-22.05,13.93-21.56,9.38.38,16.42,7.45,18.89,16.11,1.93,6.75,1.85,13.93,4,20.64,2.07,6.54,6.43,11.19,11.74,15.35,6.67,5.22,13.31,9.92,16.67,18,3.07,7.43,2.62,15,.55,22.57-1.7,6.25-4,12.74-2.71,19.3,1.42,7.18,6.65,12.78,10.11,19,9.37,18.28-6.65,32.55-23.77,36.42-.06-.22-.11-.45-.17-.67-1.56-5.89-1.94-12-3-18,3-3.7,4.33-8.27,6.58-12.42s4.68-8.1,5.8-12.68c.25-1-1.34-1.35-1.59-.34-1.29,5.28-4.48,9.65-6.79,14.49-1.14,2.4-2.05,4.92-3.37,7.23-.45.79-.75,1.41-1,1.87C54.25,294.22,51,288.1,49,281.45c-.53-1.75-1-3.51-1.31-5.27a.59.59,0,0,0,.09-.08c3.52-4.57,5.55-9.88,8.11-15,2.94-5.87,7.43-10.6,11.39-15.76.63-.82-.58-1.91-1.21-1.08-3.46,4.52-7.45,8.69-10.32,13.64-1.41,2.44-2.52,5-3.71,7.59-.93,2-2.66,7.43-4.64,8.45,0,.06-.06.11-.09.16-1.75-10.46-.87-21,.15-31.61a1,1,0,0,0,.28-.41,91.62,91.62,0,0,1,7.14-14.84c2.08-3.7,4.59-7.25,5.23-11.53.15-1-1.43-1.37-1.59-.34-.72,4.81-3.9,8.79-6.09,13-1.58,3-3.22,6.06-4.61,9.19.4-10.91-2.28-20.66-7.37-30.66-3.27-6.42-7.43-12.3-10.79-18.65C25.82,181,27,173.81,25.85,166c-.15-1-1.77-1-1.62.08.94,6.56-.14,13.17,2.36,19.47C29,191.6,33.1,197,36.3,202.62c3.83,6.77,7.3,13.93,9.07,21.55A51,51,0,0,1,46,240.41c-5.1-3.49-7.4-10.54-11.5-15-.71-.77-1.78.45-1.08,1.21,4.41,4.8,6.64,12.13,12.4,15.59q-.12,1.11-.24,2.23c-1.11,9.65-1.57,19.63,0,29.3l-.59-.49a23.17,23.17,0,0,1-2.62-2.75c-1.39-1.64-2.64-3.4-4-5.09-3.1-3.94-5.86-8.32-9.72-11.58-.8-.67-1.88.54-1.08,1.21,4.39,3.7,7.64,8.93,11.14,13.47,2,2.61,4.2,5.77,7.21,7.37.4,2,.88,4.06,1.48,6.06,2,6.75,5.36,13,6.82,19.91a6.36,6.36,0,0,1-1.24-.7,65,65,0,0,1-8.45-7c-1.79-1.71-4.89-4.08-5.44-6.64-.22-1-1.76-.52-1.55.49.69,3.19,4.67,6.23,6.92,8.3,3,2.73,6.25,5.93,10,7.59l.19.05c1,6,1.44,12.05,3.07,17.91-.78.15-1.55.25-2.33.35a36.37,36.37,0,0,1-9.9,0C38.7,321.22,30.53,317.65,28.29,310.6Z" transform="translate(-9.87)"/><path class="cls-23" d="M78.86,320.8c.4-6.68,2.08-13.18,3.4-19.71.32-1.58.59-3.14.84-4.7a.52.52,0,0,1-.27-.11c-3.83-3.53-6.42-8.92-8.82-13.46a74.19,74.19,0,0,1-4.06-8.73c-.57-1.53-1.37-3.41-1.07-5.07.14-.77,1.35-.62,1.21.15-.59,3.27,2.39,7.92,3.77,10.7a88.73,88.73,0,0,0,7.67,13c.33.45,1,1.63,1.49,1.87a1,1,0,0,0,.32.07,87.86,87.86,0,0,0,.79-15.27c-.25-7.13-.56-14.2.7-21.26l.11-.59c-3.58-3.55-4.86-9.45-6.32-14-2.14-6.75-3.74-14.37-7.43-20.46-.4-.66.56-1.42,1-.75,3.49,5.75,5,12.67,7,19,.72,2.17,3.18,12.33,6,14.69a153,153,0,0,1,4.68-18.65c2.51-7.7,6.44-14.8,10-22.07-6-6.68-5.25-17.45-8.7-25.33a.61.61,0,0,1,1.12-.48c3.34,7.63,2.69,18,8.14,24.62a87,87,0,0,0,5.05-12.73c4.3-14.62,2-30.59-.86-45.27-1.41-7.32-3.64-14.77-3.52-22.28.14-8.22,4.25-15.38,5.77-23.32.15-.77,1.36-.62,1.21.15-1.35,7.07-4.95,13.55-5.63,20.76s1.32,14.23,2.72,21.18c2.82,14,5.37,28.87,2.88,43.13a69.28,69.28,0,0,1-5.62,16.86c3.61-4.05,7.75-7.62,11.7-11.32,4.57-4.28,10.54-7.78,13.46-13.51.35-.69,1.48-.23,1.13.47-2.64,5.18-7.62,8.55-11.91,12.26-5.43,4.69-11.08,9.69-15.51,15.34a.57.57,0,0,1-.49.23c-2.44,5.06-5.07,10.05-7.27,15.2-2.94,6.87-4.59,14.14-6.29,21.4-.3,1.29-.56,2.56-.79,3.84a1.33,1.33,0,0,0,.39-.07c1.52-.55,3.14-2.3,4.35-3.35,1.42-1.23,2.78-2.53,4.11-3.84,2.77-2.74,5.42-5.61,8.3-8.24,6-5.51,13.44-9.11,20.24-13.53.65-.43,1.41.53.75,1-6.94,4.51-14.49,8.18-20.6,13.86-5.81,5.4-10.85,11.65-17.64,15.88a.85.85,0,0,1-.21.09,90.31,90.31,0,0,0-.94,17.55,112.49,112.49,0,0,1-.56,18.47,18.87,18.87,0,0,0,2.29-1.76,98,98,0,0,0,7.78-7.73c5.18-5.27,11.53-9.41,15.59-15.71.42-.66,1.39.08,1,.74-3.67,5.7-9.21,9.68-14.1,14.25-4.21,3.94-7.67,8.68-12.7,11.61q-.21,1.42-.48,2.85c-1.4,7.41-3.46,14.75-3.92,22.31a.59.59,0,0,1-.06.23L78.89,321A.62.62,0,0,1,78.86,320.8Z" transform="translate(-9.87)"/><path class="cls-24" d="M48.24,248.46c-3.81-10.79,1.88-21.44,8.82-29.52,11.88-13.82,32.14-24.3,31.76-45-.19-10.37-5-19.95-6.69-30.05A62.83,62.83,0,0,1,86,109.64c1.94-4.7,4.43-9.49,8.37-12.83,4.82-4.09,11.14-4.43,16.89-2.17,9.72,3.82,16.29,13.38,17.07,23.68.8,10.57-3.32,20.73-4.19,31.16-.78,9.33,2.07,17.3,6.91,25.15,5.32,8.62,11.44,16.63,13.07,26.91,1.75,11-1.17,21.49-7.25,30.64-5,7.53-11.48,14.65-13.5,23.72-2.25,10.09,2.26,20,3.79,29.81a35.15,35.15,0,0,1,0,10.45c-3.39,20.67-25.84,27.32-45.31,25.25L80,321.18a.59.59,0,0,0,.06-.23c.46-7.56,2.51-14.9,3.92-22.31q.27-1.43.48-2.85c5-2.92,8.49-7.67,12.7-11.61,4.89-4.57,10.43-8.55,14.1-14.25.42-.66-.54-1.4-1-.74-4.06,6.31-10.41,10.44-15.59,15.71a98,98,0,0,1-7.78,7.73,18.87,18.87,0,0,1-2.29,1.76,112.49,112.49,0,0,0,.56-18.47,90.31,90.31,0,0,1,.94-17.55.85.85,0,0,0,.21-.09C93.14,254,98.18,247.8,104,242.4c6.11-5.68,13.66-9.35,20.6-13.86.66-.43-.09-1.39-.75-1-6.8,4.42-14.21,8-20.24,13.53-2.88,2.63-5.53,5.51-8.3,8.24-1.34,1.32-2.69,2.62-4.11,3.84-1.21,1-2.83,2.79-4.35,3.35a1.33,1.33,0,0,1-.39.07c.23-1.28.49-2.55.79-3.84,1.71-7.26,3.35-14.53,6.29-21.4,2.2-5.15,4.83-10.14,7.27-15.2a.57.57,0,0,0,.49-.23c4.44-5.65,10.09-10.65,15.51-15.34,4.29-3.71,9.27-7.09,11.91-12.26.36-.7-.77-1.16-1.13-.47-2.92,5.72-8.89,9.22-13.46,13.51-3.95,3.7-8.09,7.27-11.7,11.32A69.28,69.28,0,0,0,108,195.83c2.49-14.26-.06-29.13-2.88-43.13-1.4-6.94-3.39-14-2.72-21.18s4.28-13.7,5.63-20.76c.15-.77-1.06-.92-1.21-.15-1.51,7.94-5.63,15.1-5.76,23.32-.13,7.51,2.1,15,3.52,22.28,2.84,14.68,5.16,30.64.86,45.27a87,87,0,0,1-5.05,12.73c-5.46-6.61-4.8-17-8.14-24.62a.61.61,0,0,0-1.12.48c3.45,7.89,2.72,18.66,8.7,25.33-3.51,7.27-7.44,14.37-10,22.07a153,153,0,0,0-4.68,18.65c-2.85-2.35-5.32-12.51-6-14.69-2.09-6.34-3.55-13.27-7-19-.41-.67-1.37.08-1,.75,3.7,6.09,5.29,13.71,7.43,20.46,1.46,4.59,2.74,10.49,6.32,14l-.11.59c-1.27,7.06-1,14.13-.7,21.26a87.86,87.86,0,0,1-.79,15.27,1,1,0,0,1-.32-.07c-.53-.23-1.15-1.41-1.49-1.87a88.73,88.73,0,0,1-7.67-13c-1.38-2.78-4.35-7.43-3.77-10.7.14-.77-1.07-.92-1.21-.15-.3,1.67.5,3.54,1.07,5.07A74.19,74.19,0,0,0,74,282.81c2.4,4.54,5,9.93,8.82,13.46a.52.52,0,0,0,.27.11c-.24,1.56-.52,3.13-.84,4.7-1.33,6.53-3,13-3.4,19.71a.62.62,0,0,0,0,.22l-.77-.13a52.85,52.85,0,0,1-12.94-3.8c-7.06-3.19-13.79-8.52-17.23-15.59-5.11-10.5,2.5-19,5.63-28.64a18.94,18.94,0,0,0,.36-11.4C52.6,256.89,49.82,252.93,48.24,248.46Z" transform="translate(-9.87)"/></g></g></g></g></svg>