<?xml version="1.0" standalone="no"?>
<!DOCTYPE svg PUBLIC "-//W3C//DTD SVG 20010904//EN"
 "http://www.w3.org/TR/2001/REC-SVG-20010904/DTD/svg10.dtd">
<svg version="1.0" xmlns="http://www.w3.org/2000/svg"
 width="840.000000pt" height="840.000000pt" viewBox="0 0 840.000000 840.000000"
 preserveAspectRatio="xMidYMid meet">
<metadata>
Created by potrace 1.11, written by Peter Selinger 2001-2013
</metadata>
<g transform="translate(0.000000,840.000000) scale(0.100000,-0.100000)"
fill="#000000" stroke="none">
<path d="M4040 6910 c0 -12 -57 -17 -74 -8 -10 6 -18 3 -25 -9 -6 -10 -11 -14
-11 -9 0 5 -6 3 -14 -3 -10 -8 -16 -9 -21 -2 -4 7 -14 6 -28 -4 -12 -8 -39
-15 -59 -17 -20 -1 -34 -6 -31 -11 3 -5 -6 -7 -20 -5 -17 2 -32 -4 -42 -17 -9
-11 -13 -14 -10 -7 6 11 3 11 -13 1 -12 -7 -19 -16 -16 -20 2 -4 -10 -4 -27 1
-23 7 -30 6 -26 -3 3 -8 -4 -14 -16 -15 -12 0 -23 -6 -25 -12 -2 -5 -8 -8 -13
-4 -5 3 -9 0 -9 -5 0 -6 -6 -10 -12 -8 -7 1 -12 -3 -11 -9 1 -7 -6 -10 -17 -7
-14 4 -20 0 -20 -11 0 -14 -4 -15 -21 -5 -12 6 -19 7 -15 1 3 -5 -8 -15 -24
-22 -17 -7 -30 -15 -30 -19 0 -3 -9 -12 -21 -19 -17 -11 -20 -11 -14 0 4 7 -3
3 -16 -10 -13 -13 -39 -32 -57 -43 -20 -11 -30 -24 -26 -31 4 -6 3 -8 -4 -4
-5 3 -12 1 -14 -4 -2 -6 -13 -12 -25 -13 -12 0 -20 -3 -18 -5 6 -7 -19 -30
-28 -25 -4 2 -6 0 -5 -4 4 -13 -64 -79 -76 -75 -6 2 -8 1 -4 -3 4 -4 -27 -40
-68 -81 -42 -41 -72 -74 -68 -74 4 0 -1 -7 -12 -16 -10 -8 -12 -12 -4 -9 8 4
0 -6 -17 -23 -18 -16 -33 -37 -33 -46 0 -9 -4 -16 -9 -16 -5 0 -16 -12 -26
-26 -12 -18 -13 -24 -4 -19 8 3 3 -3 -10 -14 -13 -12 -20 -21 -16 -21 4 0 2
-7 -5 -15 -10 -12 -10 -18 0 -30 7 -9 18 -14 24 -12 5 2 18 -4 28 -12 10 -9
22 -16 26 -17 13 -1 77 -33 68 -34 -11 0 14 -30 26 -30 5 0 6 6 3 13 -4 6 -1
5 7 -4 7 -9 23 -19 36 -23 12 -4 22 -12 22 -17 0 -6 5 -7 11 -4 6 4 17 -1 25
-11 9 -11 13 -14 10 -7 -4 6 4 19 16 27 12 9 19 16 15 16 -4 0 -3 9 3 20 6 12
16 18 23 14 7 -4 9 -4 5 1 -13 14 106 154 120 141 3 -3 20 10 38 29 18 19 40
35 48 35 9 0 16 5 16 11 0 6 7 9 15 5 8 -3 15 -1 15 3 0 5 20 17 45 28 25 10
45 21 45 24 0 3 13 6 29 7 17 0 38 5 49 11 10 5 33 9 50 9 17 -1 38 5 47 12 8
7 22 10 30 6 8 -3 15 -1 15 4 0 6 9 6 24 0 15 -5 27 -5 34 2 6 6 12 6 16 -1 4
-6 15 -7 29 -2 15 6 26 4 34 -4 6 -7 10 -14 8 -16 -6 -7 51 -2 63 5 6 4 19 -1
29 -11 10 -10 30 -19 43 -21 14 -1 31 -3 38 -4 6 -1 12 -7 12 -15 0 -7 8 -13
18 -13 10 0 27 -7 38 -15 12 -8 24 -12 27 -8 4 3 9 -2 13 -11 3 -9 10 -13 16
-10 5 3 18 -2 29 -12 10 -9 19 -13 19 -9 0 4 12 -5 26 -21 15 -16 23 -23 20
-16 -4 6 -3 12 2 12 6 0 13 -7 16 -16 3 -9 11 -14 18 -12 7 3 20 -3 30 -11 10
-9 22 -15 26 -15 4 1 17 -9 30 -23 12 -13 22 -19 22 -13 0 6 10 2 22 -9 11
-11 25 -18 30 -15 4 3 8 0 8 -6 0 -6 4 -9 8 -6 5 3 18 -3 29 -14 12 -10 24
-16 29 -12 4 4 4 2 0 -5 -3 -6 -2 -14 4 -18 6 -3 0 -15 -14 -28 -12 -12 -21
-28 -19 -34 3 -7 0 -13 -6 -13 -6 0 -11 -9 -11 -19 0 -10 -8 -22 -17 -25 -14
-6 -15 -9 -4 -15 11 -7 8 -13 -13 -26 -14 -9 -23 -22 -19 -28 3 -5 0 -15 -8
-21 -8 -6 -21 -27 -29 -46 -7 -19 -25 -45 -39 -58 -14 -13 -20 -21 -13 -17 6
3 2 -11 -10 -32 -12 -21 -26 -40 -30 -41 -5 -2 -6 -8 -3 -12 3 -5 -6 -21 -21
-37 -14 -15 -21 -29 -15 -31 6 -2 1 -13 -11 -24 -13 -11 -16 -16 -8 -13 8 4 2
-5 -15 -20 -16 -15 -29 -32 -27 -38 2 -5 -1 -13 -5 -16 -15 -11 -33 -62 -27
-73 4 -7 2 -8 -5 -4 -6 4 -14 0 -17 -8 -3 -9 -11 -13 -18 -9 -6 3 -8 3 -4 -2
4 -4 2 -15 -5 -23 -10 -13 -9 -15 3 -8 9 4 8 1 -2 -7 -10 -8 -18 -22 -18 -31
0 -9 -7 -19 -15 -22 -8 -4 -12 -10 -10 -15 3 -4 -5 -19 -17 -31 -13 -13 -22
-29 -20 -35 2 -7 -2 -13 -8 -13 -5 0 -10 -9 -10 -20 0 -12 -7 -20 -17 -20 -14
0 -15 -2 -4 -9 11 -7 9 -13 -10 -32 -13 -13 -24 -26 -25 -29 -3 -18 -17 -39
-23 -35 -4 2 -8 -2 -8 -10 0 -8 4 -15 9 -15 7 0 1 -8 -47 -61 -8 -9 -15 -23
-15 -32 0 -10 -5 -17 -11 -17 -5 0 -7 -4 -4 -10 3 -5 1 -10 -5 -10 -6 0 -8 -4
-5 -10 3 -5 -3 -15 -15 -22 -11 -7 -20 -20 -20 -29 0 -9 -7 -20 -16 -23 -13
-5 -14 -9 -3 -22 10 -12 10 -15 -1 -12 -8 2 -14 -2 -15 -9 0 -6 -10 -23 -23
-38 -12 -14 -20 -30 -17 -35 4 -6 2 -10 -2 -10 -5 0 -14 -9 -21 -21 -11 -17
-11 -20 0 -14 7 3 4 -2 -7 -12 -11 -10 -21 -25 -23 -32 -1 -7 -9 -20 -17 -28
-8 -8 -15 -21 -15 -29 0 -8 -7 -17 -15 -20 -8 -4 -13 -10 -10 -14 3 -5 -1 -15
-9 -23 -8 -8 -12 -18 -8 -23 4 -5 6 -8 4 -7 -8 4 -41 -31 -36 -39 12 -19 -46
-6 -60 13 -8 12 -19 18 -25 14 -6 -3 -11 -2 -11 3 0 17 -31 22 -55 9 -13 -6
-24 -14 -24 -17 1 -13 -25 -60 -33 -60 -5 0 -6 -5 -3 -11 4 -6 -1 -17 -11 -25
-11 -9 -13 -13 -6 -9 18 9 15 1 -13 -29 -14 -15 -25 -34 -25 -42 0 -7 -5 -14
-11 -14 -5 0 -7 -4 -4 -10 3 -6 1 -10 -6 -10 -7 0 -9 -3 -6 -7 4 -3 -1 -12
-11 -20 -9 -8 -11 -12 -4 -8 19 10 14 -2 -13 -29 -14 -14 -25 -30 -25 -37 0
-6 -8 -18 -17 -25 -12 -9 -14 -13 -5 -14 7 0 10 -5 7 -10 -4 -6 -11 -8 -16 -4
-5 3 -8 0 -7 -8 2 -7 -4 -12 -12 -10 -8 2 -12 0 -8 -3 4 -4 2 -17 -4 -29 -7
-11 -13 -23 -13 -26 -4 -19 -33 -68 -50 -85 -11 -11 -20 -27 -20 -35 0 -8 -5
-14 -11 -13 -7 1 -10 -6 -7 -17 3 -12 0 -20 -7 -20 -6 0 -10 -6 -8 -12 5 -14
-7 -28 -37 -46 -11 -6 -15 -12 -8 -12 7 0 10 -7 7 -15 -4 -8 -11 -12 -17 -8
-6 3 -7 1 -3 -5 4 -6 -2 -20 -13 -31 -13 -13 -16 -21 -8 -24 7 -2 0 -15 -16
-31 -17 -17 -26 -34 -23 -43 4 -11 2 -13 -9 -9 -8 3 -14 2 -14 -2 3 -18 -2
-31 -21 -52 -11 -13 -20 -29 -20 -37 0 -8 -5 -11 -12 -7 -6 4 -9 3 -6 -2 9
-14 -10 -56 -22 -49 -5 3 -7 0 -4 -8 3 -8 -5 -24 -17 -35 -14 -14 -19 -27 -15
-39 4 -9 4 -14 0 -10 -7 7 -44 -45 -44 -63 0 -15 -33 -50 -42 -44 -4 3 -5 -2
-2 -10 3 -9 -2 -23 -11 -32 -13 -14 -14 -19 -3 -25 10 -7 10 -9 -2 -10 -8 -1
-18 -1 -22 0 -4 0 -5 -6 -1 -14 3 -9 -4 -24 -18 -36 -13 -12 -23 -27 -21 -35
2 -8 -2 -14 -9 -14 -6 0 -9 -8 -6 -20 3 -11 2 -18 -2 -15 -9 5 -36 -44 -32
-58 1 -5 -3 -6 -8 -3 -7 5 -21 -13 -25 -34 -3 -13 -41 -70 -47 -70 -4 0 -10
-7 -13 -16 -4 -10 -2 -13 7 -8 6 4 4 -2 -5 -13 -10 -11 -18 -25 -18 -31 0 -6
-6 -15 -12 -19 -7 -4 -13 -15 -13 -23 0 -8 -6 -14 -13 -12 -8 1 -11 -2 -7 -8
3 -5 0 -13 -9 -16 -8 -3 -12 -12 -9 -20 3 -8 0 -14 -6 -14 -6 0 -11 -9 -11
-20 0 -11 -4 -20 -9 -20 -5 0 -12 -7 -15 -16 -3 -8 -2 -12 4 -9 6 3 7 -1 4 -9
-3 -9 -9 -14 -13 -11 -11 6 -38 -29 -33 -43 2 -7 -2 -12 -8 -12 -7 0 -10 -8
-7 -20 3 -11 1 -18 -3 -15 -5 3 -11 -3 -15 -14 -3 -10 -14 -26 -25 -36 -11
-10 -20 -26 -20 -37 0 -10 -4 -18 -10 -18 -5 0 -10 -7 -10 -16 0 -8 -7 -23
-16 -31 -13 -13 -13 -17 -2 -24 12 -8 11 -10 -10 -13 -16 -2 -39 -31 -34 -44
2 -6 -2 -12 -8 -12 -8 0 -10 -9 -6 -25 5 -18 1 -27 -14 -35 -16 -9 -18 -15
-10 -36 6 -14 6 -23 1 -20 -4 3 -6 -6 -3 -19 2 -15 0 -25 -7 -25 -7 0 -10 -4
-6 -9 3 -5 1 -13 -5 -16 -8 -5 -7 -11 1 -21 6 -8 7 -14 2 -14 -5 0 -10 -7 -10
-15 0 -8 3 -15 7 -15 13 0 26 -45 20 -70 -4 -15 -1 -30 7 -38 7 -7 13 -24 13
-38 0 -13 5 -24 11 -24 6 0 9 -5 7 -12 -3 -7 6 -23 19 -36 13 -12 23 -27 23
-32 0 -37 193 -169 227 -155 8 2 11 0 8 -5 -8 -13 -12 -13 148 -15 75 -1 137
2 137 6 0 5 14 9 30 9 17 0 30 5 30 12 0 6 3 8 7 5 3 -4 14 0 24 9 9 8 23 16
31 18 20 2 84 67 80 80 -2 6 -1 8 3 4 10 -9 45 24 38 35 -3 6 -1 7 6 3 6 -4
14 0 17 8 3 9 10 14 14 11 5 -3 6 4 3 15 -3 11 -1 20 5 20 5 0 13 7 16 16 4
10 2 13 -7 9 -6 -4 -4 0 6 8 9 8 17 22 17 31 0 9 5 16 10 16 6 0 22 25 37 54
15 30 30 53 33 51 4 -2 6 6 6 18 -1 13 4 21 12 19 8 -1 11 2 7 8 -3 5 -1 10 4
10 6 0 11 7 11 16 0 9 8 23 18 31 9 8 11 11 4 8 -11 -6 -11 -3 0 14 7 12 16
21 19 21 4 0 12 14 19 30 7 17 16 30 21 30 5 0 6 7 3 15 -4 8 -1 15 5 15 6 0
11 8 11 18 0 9 11 26 25 36 13 10 22 23 19 28 -4 6 -1 14 5 18 7 4 14 16 15
26 2 10 9 18 14 17 7 -2 9 4 5 13 -4 10 1 20 11 26 9 5 14 14 10 19 -3 5 0 8
7 7 6 -2 14 3 17 11 3 9 0 11 -9 7 -8 -4 -6 -1 4 7 10 9 18 18 18 21 -3 20 0
26 9 21 6 -4 10 -3 9 2 -4 21 3 34 29 59 15 15 20 23 13 18 -9 -4 -6 5 7 23
12 17 19 33 15 37 -3 3 -1 6 5 6 7 0 12 8 12 18 0 10 9 24 20 32 11 8 20 22
20 32 0 10 5 18 11 18 6 0 9 9 6 20 -3 11 -2 18 1 16 4 -2 18 7 32 20 14 13
19 24 12 24 -7 0 -10 5 -7 10 4 6 12 7 18 4 7 -4 9 -4 5 1 -8 9 14 56 48 101
13 17 21 34 17 37 -3 4 -1 7 6 7 8 0 11 8 8 20 -3 11 0 18 7 17 6 -1 10 4 9
11 -2 6 2 12 9 12 6 0 9 3 5 6 -7 8 17 34 31 34 6 0 8 9 5 20 -3 11 0 20 6 20
6 0 11 9 11 20 0 11 5 20 11 20 6 0 9 7 5 15 -3 8 -1 15 5 15 6 0 7 4 4 10 -4
6 1 7 11 3 12 -4 15 -3 10 5 -4 7 -1 15 8 18 8 3 12 12 9 20 -3 8 0 14 6 14 6
0 11 9 11 20 0 11 5 20 11 20 6 0 9 9 6 20 -3 11 -2 18 2 16 4 -3 13 4 21 14
8 10 17 17 22 14 4 -3 5 1 2 9 -3 8 0 18 5 22 6 3 9 11 5 16 -6 10 35 56 46
52 3 -1 7 7 8 18 4 43 6 48 19 53 8 3 11 10 8 16 -3 5 -1 10 5 10 6 0 8 5 5
10 -3 6 -1 10 5 10 6 0 18 16 26 35 8 19 19 35 24 35 5 0 7 6 4 14 -3 7 2 16
11 20 9 3 13 11 10 16 -4 6 3 20 15 30 13 11 20 26 17 35 -4 8 -1 14 6 12 7
-1 11 4 9 11 -1 6 3 12 9 12 5 0 7 5 4 10 -3 6 -1 10 4 10 6 0 11 7 11 15 0 8
10 23 21 34 13 12 19 26 15 36 -3 9 -2 14 3 11 10 -7 25 23 22 43 -3 19 -23
37 -49 45 -12 4 -22 11 -22 16 0 4 -8 7 -17 6 -10 0 -17 5 -15 12 1 6 -3 12
-9 12 -8 0 -8 4 1 15 6 8 9 19 5 25 -4 6 -3 9 2 8 12 -4 53 34 46 44 -3 5 3
16 13 23 12 9 14 14 6 15 -7 0 -10 5 -7 10 4 6 12 7 18 4 7 -4 9 -4 5 1 -4 4
-2 15 5 23 10 13 9 14 -3 8 -8 -4 -5 1 6 11 21 18 57 78 59 98 1 6 6 9 13 8 6
-2 9 4 5 12 -3 10 6 25 23 40 19 16 24 25 14 25 -13 1 -13 2 0 13 9 7 24 31
34 54 10 23 25 44 32 47 8 3 11 12 8 20 -3 8 3 19 16 26 11 6 18 16 14 21 -8
14 26 50 39 42 5 -3 7 -1 4 4 -8 13 16 76 26 68 4 -3 5 -2 2 1 -6 9 25 65 33
60 4 -3 9 5 9 17 1 11 9 24 17 29 8 5 13 15 10 23 -4 8 -1 15 6 15 7 0 10 8 7
20 -3 11 0 23 5 27 7 4 8 1 3 -8 -4 -8 2 -4 14 8 11 12 21 26 21 31 0 5 11 26
25 46 13 20 19 36 13 36 -6 0 -3 8 8 19 10 10 23 16 28 13 5 -3 7 -1 4 4 -9
15 11 56 23 48 7 -4 9 -3 6 4 -9 14 3 43 14 36 5 -3 6 2 3 10 -3 8 4 24 15 35
12 12 21 27 21 35 0 8 7 16 15 20 8 3 12 12 9 20 -3 9 3 19 16 26 12 6 19 14
16 17 -3 3 4 19 15 34 11 16 17 29 12 29 -4 0 -2 4 5 9 7 4 14 17 15 29 0 12
3 19 6 17 4 -4 41 34 41 42 0 2 -6 1 -12 -2 -7 -4 -6 -1 2 7 9 7 22 28 29 45
7 18 24 44 38 57 14 14 22 30 18 36 -3 5 -3 10 2 10 4 0 16 20 26 45 11 25 23
45 29 45 5 0 6 6 2 13 -5 6 7 -3 25 -21 18 -17 37 -30 42 -26 5 3 12 -2 15
-11 5 -12 9 -13 14 -5 5 9 10 5 15 -10 4 -14 10 -18 14 -12 5 8 20 1 44 -19
20 -17 37 -27 37 -22 0 4 7 -1 15 -11 11 -14 15 -16 15 -5 1 10 3 9 11 -3 5
-10 17 -18 25 -18 8 0 22 -9 31 -20 10 -11 22 -20 27 -20 5 0 18 -8 29 -17 11
-10 17 -12 13 -5 -7 11 -4 12 13 3 11 -7 21 -18 21 -25 0 -8 8 -13 17 -12 10
2 23 -2 30 -8 27 -24 39 -31 58 -34 11 -2 23 -9 27 -16 4 -7 30 -23 57 -36 28
-13 51 -27 51 -31 0 -5 6 -6 14 -3 8 3 19 -3 25 -14 6 -11 22 -23 36 -26 14
-4 25 -11 25 -16 0 -5 7 -7 15 -4 8 4 15 1 15 -5 0 -6 9 -10 20 -8 21 3 60 43
60 62 0 7 7 18 15 25 8 7 12 16 9 21 -3 5 -1 9 4 9 6 0 13 11 16 25 3 13 15
29 26 35 11 6 18 16 14 22 -4 5 -2 13 2 17 5 3 18 25 28 48 10 23 25 44 33 47
8 3 12 10 8 15 -3 5 -1 12 5 16 6 4 8 11 4 16 -3 5 0 8 8 7 8 -2 12 4 10 15
-2 9 2 17 8 17 5 0 10 7 10 16 0 9 12 28 28 42 15 13 21 21 15 18 -9 -5 -11
-2 -7 8 3 9 12 16 19 16 8 0 11 8 8 20 -3 12 0 20 7 20 7 0 10 7 6 15 -3 9 1
18 9 21 8 4 29 33 46 65 18 32 35 59 39 59 4 0 11 7 14 16 4 10 2 13 -7 9 -6
-4 -4 0 6 8 9 8 17 21 17 30 0 8 5 17 11 19 6 2 3 12 -8 24 -10 12 -24 19 -30
17 -7 -3 -13 3 -13 12 0 9 -4 14 -9 11 -5 -3 -14 1 -21 10 -11 12 -15 12 -21
2 -7 -10 -9 -9 -9 5 0 9 -7 17 -15 17 -8 0 -24 9 -35 20 -12 12 -25 18 -30 15
-6 -4 -10 -1 -10 5 0 6 -13 16 -30 21 -16 6 -30 15 -30 19 0 4 -10 6 -22 2
-12 -3 -19 -1 -15 5 7 11 -25 41 -39 36 -6 -2 -17 3 -23 11 -7 8 -20 12 -28 9
-10 -4 -14 -2 -10 4 4 6 -4 14 -18 17 -14 4 -25 10 -25 15 0 5 -13 14 -30 21
-16 7 -30 17 -30 22 0 6 -7 5 -15 -2 -11 -9 -15 -10 -15 -1 0 16 -26 42 -34
34 -3 -4 -6 -1 -6 6 0 7 -5 9 -10 6 -6 -3 -13 0 -16 9 -3 8 -14 13 -25 11 -11
-2 -17 0 -14 6 4 5 -1 9 -9 9 -8 0 -22 8 -32 17 -9 10 -24 18 -33 20 -8 1 -20
8 -26 16 -5 7 -16 12 -22 10 -7 -3 -13 3 -13 14 0 15 -2 16 -10 3 -8 -13 -13
-11 -33 12 -13 15 -27 25 -31 21 -3 -3 -6 -1 -6 6 0 7 -4 9 -10 6 -5 -3 -10
-1 -10 5 0 7 -6 10 -12 7 -7 -2 -25 10 -40 26 -16 17 -28 23 -28 16 -1 -9 -4
-8 -11 4 -6 9 -14 15 -18 13 -4 -3 -17 3 -27 13 -11 9 -25 16 -32 13 -7 -2
-16 6 -19 18 -3 12 -11 19 -19 16 -7 -3 -16 -1 -19 4 -11 17 -74 42 -87 34 -7
-4 -10 -4 -6 0 10 11 -34 54 -49 48 -7 -2 -13 1 -13 8 0 6 -4 9 -8 6 -5 -3
-19 4 -30 15 -12 11 -22 17 -22 14 0 -3 -15 2 -32 12 -18 9 -36 16 -41 15 -4
-1 -16 7 -27 18 -12 12 -25 18 -30 15 -6 -4 -13 1 -16 9 -4 11 -11 13 -23 6
-13 -6 -21 -4 -30 9 -9 12 -22 16 -37 13 -15 -3 -24 0 -24 8 0 8 -10 11 -29 8
-17 -2 -28 -1 -25 3 2 4 -1 11 -8 15 -16 10 -58 12 -52 2 3 -4 -9 -2 -26 3
-16 6 -30 14 -30 19 0 4 -18 4 -40 0 -26 -5 -41 -3 -43 4 -4 13 -527 18 -527
6z"/>
<path d="M1731 5276 c-12 -7 -19 -15 -16 -18 4 -4 -9 -3 -29 2 -30 7 -37 4
-53 -16 -10 -13 -26 -24 -35 -24 -10 0 -18 -5 -18 -11 0 -6 -9 -9 -20 -6 -13
3 -21 -1 -26 -15 -3 -12 -12 -17 -20 -14 -8 3 -17 -1 -20 -8 -3 -8 -19 -20
-35 -26 -16 -7 -29 -17 -29 -22 0 -5 -4 -7 -10 -3 -5 3 -21 -5 -35 -17 -15
-13 -32 -23 -38 -23 -7 -1 -11 -7 -9 -15 3 -11 0 -11 -12 -1 -13 11 -17 10
-22 -3 -3 -9 -12 -16 -20 -16 -8 0 -23 -9 -34 -20 -12 -12 -25 -18 -30 -15 -6
4 -10 2 -10 -4 0 -10 -38 -27 -52 -23 -4 1 -5 -5 -2 -13 5 -11 2 -13 -10 -9
-19 7 -60 -29 -48 -41 4 -4 -4 -2 -17 5 -13 6 -21 8 -17 2 5 -9 -15 -24 -36
-26 -4 -1 -13 -10 -21 -20 -9 -12 -20 -17 -31 -13 -10 4 -15 3 -11 -3 5 -9 0
-11 -21 -10 -3 1 -14 -9 -25 -22 -11 -13 -17 -17 -14 -9 5 9 -1 8 -19 -4 -14
-10 -26 -21 -26 -26 0 -5 -9 -9 -20 -9 -11 0 -20 -4 -20 -10 0 -5 -9 -10 -20
-10 -11 0 -20 -4 -20 -10 0 -5 -7 -10 -15 -10 -18 0 -56 -31 -49 -41 2 -4 -5
-5 -16 -2 -12 3 -20 0 -20 -7 0 -6 -5 -10 -12 -8 -15 5 -49 -23 -41 -34 3 -5
-1 -8 -8 -7 -22 3 -126 -50 -133 -67 -3 -9 -13 -14 -20 -11 -8 3 -16 3 -18 -1
-2 -4 -20 -18 -41 -30 -21 -12 -35 -16 -32 -10 4 7 -4 1 -17 -13 -13 -14 -39
-32 -58 -39 -19 -7 -43 -22 -53 -32 -10 -10 -24 -18 -33 -18 -8 0 -17 -6 -20
-14 -3 -8 -12 -12 -20 -9 -8 3 -14 0 -14 -6 0 -6 -8 -11 -18 -11 -10 0 -24 -9
-32 -19 -7 -11 -18 -17 -24 -14 -6 3 -8 3 -4 -2 8 -8 -21 -65 -33 -65 -6 0 -5
-192 1 -197 1 -2 3 -6 4 -10 1 -5 9 -22 19 -39 9 -17 13 -35 9 -39 -4 -5 -1
-5 6 -1 6 4 12 2 12 -3 0 -6 6 -11 13 -11 8 0 26 -11 42 -24 15 -13 45 -29 66
-36 22 -7 37 -15 34 -18 -6 -7 15 -32 27 -32 5 0 6 6 3 13 -4 6 0 4 8 -5 8
-10 20 -18 27 -18 7 0 19 -8 27 -17 8 -11 11 -12 7 -3 -7 13 -6 13 11 0 11 -8
28 -23 39 -32 10 -10 23 -15 27 -12 4 2 12 -4 18 -13 7 -12 10 -13 11 -4 0 8
8 4 21 -10 11 -13 17 -18 14 -11 -6 11 -3 11 14 0 12 -7 21 -16 21 -19 0 -4
14 -12 30 -18 17 -5 30 -15 30 -21 0 -6 4 -9 9 -5 5 3 21 -6 34 -19 14 -14 28
-22 31 -19 3 4 15 -2 26 -12 11 -10 20 -14 20 -10 0 4 9 0 20 -10 11 -10 20
-14 20 -9 0 5 11 -4 25 -20 14 -16 25 -24 25 -17 0 9 5 8 15 -3 8 -8 24 -18
35 -21 11 -3 20 -11 20 -16 0 -6 4 -8 9 -4 5 3 22 -6 36 -19 16 -15 33 -22 42
-19 11 4 14 2 9 -5 -4 -7 -1 -12 8 -12 8 0 22 -8 32 -17 10 -10 21 -18 25 -18
5 0 17 -7 27 -16 10 -8 23 -14 30 -11 7 2 15 -3 18 -12 3 -9 10 -13 15 -10 10
6 41 -21 33 -29 -3 -3 6 -4 20 -3 14 2 23 0 21 -4 -6 -10 25 -24 44 -21 7 1
10 -2 6 -8 -3 -6 1 -11 10 -11 8 0 23 -9 32 -20 10 -11 26 -20 36 -20 9 0 20
-7 24 -16 3 -8 12 -13 20 -10 7 3 16 -1 19 -9 3 -7 36 -28 72 -46 37 -17 74
-40 83 -50 9 -10 19 -16 23 -12 3 4 13 -2 22 -13 8 -10 12 -12 8 -4 -4 8 5 4
21 -10 16 -14 25 -19 20 -11 -5 9 1 7 19 -4 14 -9 33 -15 41 -11 8 3 15 0 15
-6 0 -7 5 -6 15 2 13 10 15 9 15 -9 0 -18 3 -19 25 -9 13 6 22 15 18 20 -3 6
2 6 13 0 14 -7 29 -6 54 6 19 8 38 16 41 16 11 2 74 70 71 78 -1 4 1 7 5 7 20
-3 24 2 13 16 -9 11 -9 15 -1 15 7 0 9 5 6 10 -3 6 -1 10 5 10 6 0 10 10 9 23
-2 12 0 27 4 34 4 6 3 15 -3 18 -7 4 -8 11 -2 18 11 14 -2 57 -17 57 -7 0 -7
9 0 27 6 15 7 25 4 21 -9 -9 -85 66 -85 83 0 11 -2 11 -8 1 -7 -10 -14 -7 -33
10 -13 13 -45 34 -71 46 -27 13 -48 28 -48 34 0 5 -6 8 -14 5 -8 -3 -17 1 -20
9 -3 8 -15 14 -26 14 -11 0 -23 7 -26 15 -4 8 -10 13 -14 10 -5 -3 -20 6 -33
19 -14 14 -28 22 -31 19 -3 -4 -15 2 -27 13 -12 10 -24 18 -28 18 -15 -3 -52
17 -57 31 -4 8 -15 15 -25 15 -11 0 -19 7 -19 18 0 12 -2 14 -8 4 -7 -10 -15
-6 -35 14 -15 15 -27 23 -27 19 0 -5 -12 2 -27 16 -14 13 -23 18 -18 11 6 -11
3 -12 -14 -2 -12 6 -19 15 -16 20 3 6 -1 7 -9 4 -8 -3 -23 3 -34 14 -11 11
-23 18 -26 15 -3 -4 -6 -1 -6 6 0 7 -4 10 -9 6 -6 -3 -14 3 -20 12 -8 14 -11
15 -11 3 0 -12 -3 -11 -11 3 -5 9 -17 17 -26 17 -9 0 -27 12 -41 28 -13 15
-21 21 -17 14 6 -11 3 -11 -13 -1 -12 7 -19 16 -16 20 2 4 -5 5 -15 2 -13 -3
-23 2 -30 16 -7 12 -19 21 -28 21 -9 0 -22 8 -30 18 -8 9 -12 11 -8 4 3 -6
-11 -2 -32 10 -21 12 -40 26 -42 31 -4 9 -52 31 -63 29 -5 -1 -8 3 -8 9 0 5
-6 7 -12 4 -7 -4 -2 2 12 13 13 11 29 18 34 15 5 -3 6 -1 3 4 -6 9 11 23 33
27 3 1 11 5 18 9 6 5 12 5 12 0 0 -4 5 0 11 10 6 9 14 15 18 12 5 -2 21 7 35
20 15 14 31 23 36 20 5 -3 13 2 18 10 5 9 15 17 23 19 20 3 59 26 83 47 15 15
22 16 28 7 5 -10 8 -8 8 4 0 9 10 18 23 20 12 2 21 9 20 16 -2 6 0 11 5 10 9
-2 102 41 102 48 0 3 -5 2 -12 -2 -7 -4 -8 -3 -4 4 4 6 13 9 22 5 8 -3 23 4
33 16 10 11 21 18 25 14 3 -3 6 -1 6 5 0 7 6 11 13 10 6 -2 11 3 9 11 -3 12 0
12 12 2 13 -11 17 -10 22 3 3 9 14 16 23 16 9 0 22 9 29 20 7 12 17 18 22 15
6 -3 10 -1 10 4 0 6 6 10 13 9 6 -2 11 2 10 9 -2 8 4 10 14 6 9 -3 21 0 27 8
6 8 20 21 30 29 18 13 19 13 12 0 -4 -8 0 -6 8 4 9 11 19 17 22 13 3 -3 15 3
27 13 11 11 24 17 28 14 4 -2 13 5 19 16 7 12 18 19 26 16 7 -3 18 3 24 14 6
11 16 17 25 14 8 -4 15 -1 15 5 0 6 11 11 25 11 14 0 24 5 23 12 -2 6 8 17 22
24 44 23 70 46 63 57 -3 5 -2 7 4 4 13 -8 46 32 39 49 -3 8 -1 14 5 14 6 0 8
4 5 9 -3 5 1 12 10 15 12 5 13 10 5 19 -7 10 -7 17 0 24 8 8 8 13 0 17 -7 5
-7 15 -1 32 8 19 6 26 -5 30 -8 4 -13 10 -10 14 3 5 0 12 -6 16 -8 5 -8 9 1
14 15 9 -82 110 -106 110 -8 0 -17 6 -20 14 -3 8 -13 12 -23 9 -10 -2 -24 1
-32 9 -18 17 -41 18 -68 4z"/>
<path d="M6554 5026 c-12 -14 -19 -16 -22 -8 -2 7 -8 10 -12 7 -5 -3 -7 -12
-3 -20 4 -11 1 -13 -11 -9 -22 8 -71 -40 -62 -61 3 -9 2 -13 -3 -10 -9 5 -27
-32 -23 -47 1 -5 -1 -7 -5 -7 -20 3 -23 -3 -13 -21 6 -11 7 -20 2 -20 -10 0
-9 -36 1 -46 4 -4 2 -13 -3 -20 -8 -8 -7 -16 2 -25 7 -8 15 -23 16 -34 2 -10
11 -25 20 -33 12 -9 12 -11 2 -6 -12 7 -13 5 -3 -8 7 -8 11 -18 8 -21 -3 -4
-2 -5 1 -3 3 2 14 -4 25 -15 11 -11 24 -17 29 -14 6 4 10 -1 10 -10 0 -9 5
-13 10 -10 6 3 10 2 10 -3 0 -5 14 -15 30 -22 17 -7 30 -16 30 -21 0 -5 7 -6
15 -3 8 4 17 -1 21 -10 3 -9 10 -13 15 -10 5 3 21 -6 36 -20 15 -14 30 -23 34
-21 4 3 12 -2 19 -10 6 -7 19 -11 27 -8 11 4 14 2 9 -5 -4 -7 -1 -12 7 -12 8
0 26 -11 41 -25 15 -14 32 -23 37 -20 5 4 9 1 9 -5 0 -7 6 -10 13 -8 13 5 48
-26 41 -36 -2 -3 -1 -4 3 -1 3 3 12 0 20 -6 7 -6 13 -8 13 -5 0 4 13 -2 29
-13 16 -12 33 -21 39 -21 5 0 19 -9 32 -20 12 -11 27 -17 31 -14 5 3 9 0 9 -6
0 -6 4 -8 10 -5 5 3 7 0 4 -9 -4 -11 0 -14 15 -11 12 2 21 -1 21 -6 0 -6 5 -9
12 -7 7 3 25 -8 41 -23 16 -16 34 -27 41 -26 6 1 10 -3 9 -10 -2 -7 3 -10 10
-7 7 2 24 -4 37 -16 13 -11 29 -20 37 -20 7 0 13 -5 13 -11 0 -6 6 -9 13 -6 6
2 17 -2 22 -9 6 -7 17 -14 25 -16 19 -4 39 -21 34 -30 -3 -4 5 -5 16 -3 13 3
20 -1 20 -12 0 -9 6 -13 14 -10 8 3 20 -1 26 -9 7 -8 18 -14 25 -14 7 0 18 -7
25 -15 7 -8 15 -13 19 -10 4 2 13 -5 21 -15 8 -10 17 -17 22 -14 4 3 5 -2 2
-11 -4 -9 -12 -14 -19 -12 -6 3 -20 -6 -30 -19 -10 -14 -24 -23 -31 -20 -7 3
-14 -1 -17 -7 -2 -7 -22 -18 -43 -26 -38 -14 -67 -35 -59 -43 2 -2 -6 -5 -18
-5 -12 -1 -23 -7 -25 -13 -2 -5 -8 -8 -13 -4 -5 3 -9 0 -9 -6 0 -6 -4 -9 -9
-5 -6 3 -15 -4 -21 -16 -8 -14 -18 -19 -31 -16 -10 3 -17 0 -16 -7 1 -6 -6
-10 -15 -10 -10 1 -18 -2 -18 -6 0 -5 -9 -12 -20 -15 -11 -3 -26 -12 -33 -19
-20 -20 -100 -60 -115 -58 -7 2 -15 -4 -18 -13 -6 -15 -84 -61 -84 -50 0 3
-11 -5 -23 -19 -13 -14 -27 -23 -30 -19 -4 3 -7 1 -7 -6 0 -7 -4 -9 -10 -6 -5
3 -10 1 -10 -6 0 -6 -8 -9 -20 -6 -11 3 -18 0 -17 -7 1 -6 -8 -11 -20 -10 -13
0 -21 -1 -19 -4 7 -6 -27 -42 -35 -37 -4 3 -12 -2 -19 -10 -7 -8 -19 -15 -28
-15 -8 0 -21 -8 -29 -17 -8 -10 -12 -12 -8 -6 4 9 1 11 -9 7 -9 -3 -16 -9 -16
-13 0 -5 -24 -21 -52 -36 -29 -16 -55 -31 -58 -35 -5 -7 -51 -34 -60 -35 -19
-3 -49 -28 -44 -36 3 -6 -2 -9 -12 -7 -15 2 -18 -2 -16 -19 2 -13 -2 -23 -9
-23 -6 0 -9 -8 -6 -20 3 -11 1 -18 -3 -15 -5 3 -12 0 -16 -7 -11 -17 -11 -58
-1 -58 4 0 3 -9 -3 -20 -8 -14 -8 -20 0 -20 8 0 8 -6 0 -20 -8 -14 -8 -20 0
-20 6 0 8 -4 5 -10 -3 -5 -1 -10 6 -10 6 0 9 -8 6 -20 -3 -11 -2 -18 1 -16 10
5 32 -20 25 -28 -8 -8 37 -57 47 -51 4 2 16 -4 27 -15 12 -10 24 -16 27 -13 3
4 14 0 23 -8 20 -16 41 -18 61 -5 8 5 18 4 24 -2 8 -8 17 -8 30 -1 13 7 18 6
18 -3 0 -6 9 -2 20 10 23 24 35 29 25 10 -4 -7 0 -5 8 4 8 10 16 15 19 13 3
-3 11 1 18 10 7 8 21 15 31 15 11 0 19 5 19 11 0 6 6 9 12 7 14 -5 43 20 43
36 0 6 10 10 23 8 12 -2 22 2 22 7 0 6 9 11 20 11 11 0 20 5 20 11 0 6 9 9 20
6 11 -3 18 0 17 7 -1 6 4 10 12 8 8 -2 11 3 8 13 -4 8 -1 16 6 16 27 3 33 5
65 22 18 10 30 22 27 28 -4 5 -3 8 2 7 15 -5 94 32 88 41 -3 5 4 7 15 4 12 -3
20 0 20 6 0 7 5 9 12 5 7 -4 8 -3 4 4 -3 6 3 16 15 22 17 10 20 9 14 -2 -3 -7
1 -4 9 6 9 11 16 16 16 11 0 -4 8 0 19 9 10 9 23 16 29 14 5 -2 19 7 30 20 11
12 26 21 33 20 8 -2 13 3 11 10 -1 6 1 11 5 11 5 -1 11 0 16 1 4 1 11 3 16 4
5 0 19 12 30 25 14 15 21 19 21 10 1 -10 5 -9 15 5 8 10 21 16 29 13 9 -4 15
-3 13 1 -1 4 2 8 6 9 5 0 21 12 35 26 15 13 44 31 65 38 20 7 37 17 37 22 0 4
4 6 9 3 5 -3 14 1 21 9 7 8 16 13 20 10 5 -3 12 0 16 6 4 8 3 9 -4 5 -8 -4
-10 -2 -6 7 3 9 13 13 25 10 10 -3 19 0 19 6 0 6 8 11 18 11 10 0 25 9 35 20
9 11 24 20 32 20 8 0 15 5 15 11 0 5 5 7 10 4 6 -3 10 -1 10 4 0 6 6 10 13 9
6 -2 11 2 10 8 -1 7 6 10 17 7 11 -3 20 0 20 6 0 15 78 53 92 45 6 -4 8 -3 5
3 -8 13 19 37 32 29 6 -4 18 5 27 19 9 14 22 25 28 24 21 -4 48 14 99 64 29
28 46 47 38 42 -10 -6 -10 -2 2 16 9 16 14 47 13 92 0 37 2 67 7 67 4 0 1 13
-7 29 -9 16 -13 31 -10 33 8 9 -95 108 -111 108 -9 0 -18 6 -21 14 -3 8 -12
12 -20 9 -9 -3 -14 2 -14 13 0 16 -2 17 -10 4 -8 -13 -13 -11 -32 10 -13 14
-30 26 -38 28 -8 2 -21 10 -27 19 -7 9 -13 13 -13 9 0 -5 -6 -3 -13 3 -8 6
-16 8 -20 5 -3 -3 -8 4 -12 15 -3 12 -10 19 -15 16 -5 -3 -15 2 -23 10 -12 11
-17 12 -21 2 -3 -7 -7 -4 -11 9 -5 15 -13 20 -25 17 -12 -3 -22 3 -30 17 -8
15 -18 20 -32 17 -11 -3 -18 -3 -15 0 9 8 -17 31 -29 26 -7 -2 -15 1 -19 6 -3
6 -11 9 -16 6 -5 -4 -9 2 -9 11 0 10 -3 15 -6 11 -4 -3 -13 1 -21 9 -8 8 -18
12 -23 9 -4 -3 -10 2 -14 10 -3 8 -13 15 -22 15 -9 0 -28 12 -42 28 -13 15
-22 22 -18 16 3 -6 -10 -4 -28 5 -19 9 -31 20 -28 25 3 5 1 6 -5 3 -13 -8 -75
31 -68 43 3 5 0 7 -8 4 -8 -3 -21 1 -28 9 -8 7 -20 12 -27 9 -6 -2 -12 1 -12
8 0 6 -4 8 -10 5 -5 -3 -22 7 -37 22 -16 15 -32 28 -38 29 -23 1 -63 24 -69
39 -4 11 -13 15 -26 12 -11 -3 -18 -2 -15 3 3 4 -9 13 -25 20 -16 7 -28 16
-25 20 3 5 -4 6 -14 3 -12 -3 -23 2 -30 14 -5 11 -29 26 -51 33 -23 8 -44 20
-47 27 -3 7 -9 10 -15 7 -5 -3 -18 3 -29 15 -11 12 -24 19 -29 16 -4 -3 -10 2
-14 10 -3 8 -12 15 -20 15 -8 0 -21 6 -28 14 -12 12 -74 48 -88 51 -21 5 -58
29 -55 36 3 4 -4 5 -15 2 -12 -3 -20 0 -20 6 0 7 -4 10 -9 6 -5 -3 -13 -1 -16
5 -5 8 -11 8 -20 0 -10 -8 -15 -8 -20 0 -5 8 -11 8 -19 1 -7 -6 -16 -8 -20 -4
-14 14 -45 9 -62 -11z"/>
</g>
</svg>
